<svg width="323" height="278" viewBox="0 0 323 278" fill="none" xmlns="http://www.w3.org/2000/svg">
<g filter="url(#filter0_i_268_752)">
<path fill-rule="evenodd" clip-rule="evenodd" d="M120.111 7.06538C120.111 3.16328 116.948 0 113.046 0C109.144 0 105.981 3.16328 105.981 7.06538V35.3269C105.981 39.229 109.144 42.3923 113.046 42.3923C116.948 42.3923 120.111 39.229 120.111 35.3269V7.06538ZM159.714 144.945C165.932 135.866 169.569 124.881 169.569 113.046C169.569 100.186 165.274 88.3294 158.041 78.8316C150.4 87.3679 145.753 98.6413 145.753 111C145.753 124.236 151.083 136.228 159.714 144.945ZM154.873 151.064C144.463 140.895 138 126.702 138 111C138 96.3156 143.652 82.9513 152.899 72.9639C142.68 62.8024 128.596 56.523 113.046 56.523C81.8292 56.523 56.523 81.8292 56.523 113.046C56.523 144.263 81.8292 169.569 113.046 169.569C129.624 169.569 144.534 162.432 154.873 151.064ZM179.073 57.0114L192.982 43.1028C195.741 40.3436 195.741 35.8701 192.982 33.1109C190.222 30.3517 185.749 30.3517 182.99 33.1109L163.006 53.0948C160.247 55.854 160.247 60.3275 163.006 63.0867C163.27 63.3514 163.551 63.5907 163.844 63.8046C168.496 60.826 173.618 58.5163 179.073 57.0114ZM113.046 183.7C116.206 183.7 118.882 185.775 119.785 188.636C114.525 194.175 109.887 200.307 105.981 206.92V190.765C105.981 186.863 109.144 183.7 113.046 183.7ZM107.322 223.17C110.573 215.229 114.896 207.837 120.111 201.174V219.027C120.111 222.929 116.948 226.092 113.046 226.092C110.692 226.092 108.606 224.941 107.322 223.17ZM176.897 166.906C171.636 167.851 166.528 169.237 161.613 171.025C161.951 171.739 162.415 172.408 163.006 172.998L182.99 192.982C185.749 195.742 190.222 195.742 192.982 192.982C195.741 190.223 195.741 185.75 192.982 182.99L176.897 166.906ZM219.027 120.111C222.929 120.111 226.092 116.948 226.092 113.046C226.092 109.144 222.929 105.981 219.027 105.981H190.765C186.863 105.981 183.7 109.144 183.7 113.046C183.7 116.948 186.863 120.111 190.765 120.111H219.027ZM42.3923 113.046C42.3923 116.948 39.229 120.111 35.3269 120.111H7.06538C3.16328 120.111 0 116.948 0 113.046C0 109.144 3.16328 105.981 7.06538 105.981H35.3269C39.229 105.981 42.3923 109.144 42.3923 113.046ZM63.0862 163.006C65.8454 165.765 65.8454 170.239 63.0862 172.998L43.1023 192.982C40.3431 195.741 35.8696 195.741 33.1104 192.982C30.3512 190.223 30.3512 185.749 33.1104 182.99L53.0943 163.006C55.8535 160.247 60.327 160.247 63.0862 163.006ZM63.0863 63.0869C60.3271 65.8461 55.8535 65.8461 53.0943 63.0869L33.1104 43.103C30.3512 40.3438 30.3512 35.8702 33.1104 33.111C35.8696 30.3518 40.3432 30.3518 43.1024 33.111L63.0863 53.0949C65.8455 55.8541 65.8455 60.3277 63.0863 63.0869Z" fill="#929292"/>
<path d="M243.003 110.368C243.003 137.308 221.164 159.148 194.223 159.148C167.283 159.148 145.443 137.308 145.443 110.368C145.443 83.4274 167.283 61.5879 194.223 61.5879C221.164 61.5879 243.003 83.4274 243.003 110.368Z" fill="#979797"/>
<path fill-rule="evenodd" clip-rule="evenodd" d="M247.27 181.608C232.144 171.228 213.833 165.154 194.103 165.154C142.146 165.154 100.027 207.273 100.027 259.23C100.027 259.832 100.033 260.433 100.044 261.032H189.819L189.706 260.686C187.613 254.301 189.887 247.284 195.342 243.354L205.194 236.257C206.256 235.491 207.393 234.877 208.576 234.414L247.27 181.608ZM238.516 261.032H288.161C288.173 260.433 288.178 259.832 288.178 259.23C288.178 241.637 283.349 225.172 274.944 211.088L238.652 260.616C238.645 260.639 238.637 260.663 238.63 260.686L238.516 261.032ZM251.543 184.72L211.827 238.922C210.577 239.22 209.372 239.762 208.284 240.546L198.432 247.643C194.851 250.223 193.352 254.837 194.729 259.04L195.382 261.032H205.683L203.995 256.174C203.753 255.478 203.993 254.705 204.586 254.268L213.077 248.006C213.661 247.576 214.455 247.568 215.047 247.987L223.841 254.215C224.433 254.634 224.69 255.386 224.478 256.08L222.962 261.032H232.953L233.606 259.04C233.691 258.779 233.766 258.517 233.829 258.255C233.833 258.238 233.837 258.222 233.841 258.206L233.856 258.218L271.892 206.308C266.286 198.083 259.408 190.793 251.543 184.72ZM217.434 261.032L218.66 257.024L214.118 253.807L209.86 256.947L211.28 261.032H217.434Z" fill="#929292"/>
<path fill-rule="evenodd" clip-rule="evenodd" d="M294.318 124.906C289.401 123.418 283.953 124.229 279.615 127.337L263.178 139.116C257.203 143.397 254.702 151.054 257 158.03L261.376 171.314L211.712 238.992C210.461 239.291 209.255 239.832 208.165 240.616L198.303 247.71C194.718 250.289 193.218 254.901 194.596 259.102L198.313 270.425C199.676 274.58 203.546 277.387 207.909 277.387H220.201C224.565 277.387 228.435 274.58 229.798 270.425L233.514 259.102C233.605 258.826 233.683 258.548 233.749 258.269L233.765 258.28L285.052 188.39H299.676C306.949 188.39 313.399 183.729 315.672 176.831L321.865 158.03C323.512 153.03 322.694 147.68 319.899 143.475L304.754 164.112L304.421 163.868L304.364 164.043H284.875L278.853 145.768L279.272 145.468L279.244 145.447L294.318 124.906ZM208.981 267.46C208.262 267.463 207.62 267.009 207.384 266.33L203.872 256.237C203.63 255.541 203.87 254.769 204.463 254.332L212.963 248.073C213.548 247.643 214.343 247.635 214.936 248.054L223.739 254.279C224.332 254.698 224.589 255.45 224.376 256.143L221.286 266.227C221.07 266.932 220.42 267.414 219.682 267.417L208.981 267.46Z" fill="#979797"/>
</g>
<defs>
<filter id="filter0_i_268_752" x="0" y="0" width="322.709" height="281.387" filterUnits="userSpaceOnUse" color-interpolation-filters="sRGB">
<feFlood flood-opacity="0" result="BackgroundImageFix"/>
<feBlend mode="normal" in="SourceGraphic" in2="BackgroundImageFix" result="shape"/>
<feColorMatrix in="SourceAlpha" type="matrix" values="0 0 0 0 0 0 0 0 0 0 0 0 0 0 0 0 0 0 127 0" result="hardAlpha"/>
<feOffset dy="4"/>
<feGaussianBlur stdDeviation="2"/>
<feComposite in2="hardAlpha" operator="arithmetic" k2="-1" k3="1"/>
<feColorMatrix type="matrix" values="0 0 0 0 0 0 0 0 0 0 0 0 0 0 0 0 0 0 0.25 0"/>
<feBlend mode="normal" in2="shape" result="effect1_innerShadow_268_752"/>
</filter>
</defs>
</svg>
