<svg width="93" height="91" viewBox="0 0 93 91" fill="none" xmlns="http://www.w3.org/2000/svg">
<path fill-rule="evenodd" clip-rule="evenodd" d="M13.5 7C9.91015 7 7 9.91015 7 13.5V76.7093C7 80.2991 9.91015 83.2093 13.5 83.2093H78.5584C82.1482 83.2093 85.0584 80.2991 85.0584 76.7093V13.5C85.0584 9.91015 82.1482 7 78.5584 7H13.5ZM0 13.5C0 6.04416 6.04416 0 13.5 0H78.5584C86.0142 0 92.0584 6.04417 92.0584 13.5V76.7093C92.0584 84.1651 86.0142 90.2093 78.5584 90.2093H13.5C6.04415 90.2093 0 84.1651 0 76.7093V13.5Z" fill="black"/>
<path d="M24.5808 38.3359L8.45196 74.972C8.15392 75.649 8 76.3806 8 77.1203C8 81.7476 11.7511 85.4987 16.3783 85.4988L80.4999 85.4999C83.8136 85.5 86.5 82.8136 86.5 79.4999V13.1833C86.5 12.2046 85.2393 11.8085 84.6796 12.6114L48.7279 64.1866L24.5808 38.3359Z" fill="#F3B52A" stroke="black" stroke-width="6"/>
<circle cx="24.7651" cy="38.9409" r="5.36273" fill="white" stroke="black" stroke-width="6"/>
<circle cx="48.392" cy="63.5131" r="5.36273" fill="white" stroke="black" stroke-width="6"/>
</svg>
