<svg width="93" height="91" viewBox="0 0 93 91" fill="none" xmlns="http://www.w3.org/2000/svg">
<rect x="3.5" y="6.27344" width="85.0584" height="17.5664" rx="6" fill="#F3B52A"/>
<path fill-rule="evenodd" clip-rule="evenodd" d="M22.5333 26V41.831H5V47.831H22.5333V63.0956H5V69.0956H22.5333L22.5333 87H28.5333L28.5333 69.0956H43.0667V87H49.0667V69.0956H63.6V87H69.6V69.0956H89V63.0956H69.6V47.831H89V41.831H69.6V26H63.6V41.831H49.0667V26H43.0667V41.831H28.5333V26H22.5333ZM49.0667 63.0956H63.6V47.831H49.0667V63.0956ZM43.0667 47.831H28.5333V63.0956H43.0667V47.831Z" fill="#0B0B0B"/>
<path fill-rule="evenodd" clip-rule="evenodd" d="M13.5 7C9.91015 7 7 9.91015 7 13.5V76.7093C7 80.2991 9.91015 83.2093 13.5 83.2093H78.5584C82.1482 83.2093 85.0584 80.2991 85.0584 76.7093V13.5C85.0584 9.91015 82.1482 7 78.5584 7H13.5ZM0 13.5C0 6.04416 6.04416 0 13.5 0H78.5584C86.0142 0 92.0584 6.04417 92.0584 13.5V76.7093C92.0584 84.1651 86.0142 90.2093 78.5584 90.2093H13.5C6.04415 90.2093 0 84.1651 0 76.7093V13.5Z" fill="#0B0B0B"/>
<line x1="5" y1="24" x2="90" y2="24" stroke="black" stroke-width="6"/>
</svg>
