<svg width="204" height="252" viewBox="0 0 204 252" fill="none" xmlns="http://www.w3.org/2000/svg">
<g filter="url(#filter0_i_249_111)">
<path fill-rule="evenodd" clip-rule="evenodd" d="M0.603516 12.1599C0.603516 5.83788 5.7285 0.712891 12.0505 0.712891H191.857C198.179 0.712891 203.304 5.83787 203.304 12.1599V239.975C203.304 246.296 198.179 251.421 191.857 251.421H12.0505C5.72849 251.421 0.603516 246.296 0.603516 239.975V12.1599ZM144.627 64.7255C144.627 88.2936 125.521 107.399 101.953 107.399C78.3847 107.399 59.279 88.2936 59.279 64.7255C59.279 41.1574 78.3847 22.0517 101.953 22.0517C125.521 22.0517 144.627 41.1574 144.627 64.7255ZM101.951 230.082C131.411 230.082 155.293 206.2 155.293 176.74C155.293 147.28 131.411 123.398 101.951 123.398C72.4905 123.398 48.6084 147.28 48.6084 176.74C48.6084 206.2 72.4905 230.082 101.951 230.082Z" fill="#979797"/>
<circle cx="101.953" cy="64.7241" r="32.0054" fill="#979797"/>
<circle cx="101.951" cy="176.744" r="42.6738" fill="#979797"/>
</g>
<defs>
<filter id="filter0_i_249_111" x="0.603516" y="0.712891" width="202.701" height="253.762" filterUnits="userSpaceOnUse" color-interpolation-filters="sRGB">
<feFlood flood-opacity="0" result="BackgroundImageFix"/>
<feBlend mode="normal" in="SourceGraphic" in2="BackgroundImageFix" result="shape"/>
<feColorMatrix in="SourceAlpha" type="matrix" values="0 0 0 0 0 0 0 0 0 0 0 0 0 0 0 0 0 0 127 0" result="hardAlpha"/>
<feOffset dy="3.05252"/>
<feGaussianBlur stdDeviation="1.52626"/>
<feComposite in2="hardAlpha" operator="arithmetic" k2="-1" k3="1"/>
<feColorMatrix type="matrix" values="0 0 0 0 0 0 0 0 0 0 0 0 0 0 0 0 0 0 0.25 0"/>
<feBlend mode="normal" in2="shape" result="effect1_innerShadow_249_111"/>
</filter>
</defs>
</svg>
