          <svg preserveAspectRatio="none" viewBox="0 0 204 252" fill="none" xmlns="http://www.w3.org/2000/svg" class="_src_components_GenerateReport_GenerateReport_module__icon3">
            <path fill-rule="evenodd" clip-rule="evenodd" d="M0.602654 12.1601C0.602654 5.83808 5.72763 0.713089 12.0496 0.713089H191.856C198.178 0.713089 203.303 5.83807 203.303 12.1601V239.975C203.303 246.297 198.178 251.422 191.856 251.422H12.0496C5.72763 251.422 0.602654 246.297 0.602654 239.975V12.1601ZM144.626 64.7257C144.626 88.2938 125.52 107.4 101.952 107.4C78.3838 107.4 59.2781 88.2938 59.2781 64.7257C59.2781 41.1576 78.3838 22.0519 101.952 22.0519C125.52 22.0519 144.626 41.1576 144.626 64.7257ZM101.95 230.083C131.41 230.083 155.292 206.2 155.292 176.74C155.292 147.28 131.41 123.398 101.95 123.398C72.4897 123.398 48.6075 147.28 48.6075 176.74C48.6075 206.2 72.4897 230.083 101.95 230.083Z" fill="#979797"></path>
            <circle cx="101.952" cy="64.7249" r="32.0054" fill="#979797"></circle>
            <circle cx="101.95" cy="176.744" r="42.6738" fill="#979797"></circle>
          </svg>