<svg width="208" height="249" viewBox="0 0 208 249" fill="none" xmlns="http://www.w3.org/2000/svg"> 
<g filter="url(#filter0_i_216_67)"> <path fill-rule="evenodd" clip-rule="evenodd" d="M163.108 57.6374L199.369 3.24602C196.603 1.47794 193.315 0.453125 189.789 0.453125H56.1746C46.3355 0.453125 38.3594 8.42926 38.3594 18.2683V87.8096C59.7426 91.4466 79.5339 99.7024 96.6507 111.504C104.026 106.089 113.13 102.891 122.982 102.891C147.579 102.891 167.52 122.831 167.52 147.429C167.52 161.416 161.071 173.898 150.985 182.063C154.146 190.937 156.458 200.209 157.822 209.782H189.789C199.628 209.782 207.604 201.806 207.604 191.967V18.2683C207.604 15.9932 207.177 13.8176 206.4 11.8173L179.539 52.1084L192.957 48.754L206.262 45.4277L198.655 56.8389L167.478 103.604L158.655 97.7216L182.224 62.3679L168.806 65.7224L155.501 69.0486L163.108 57.6374ZM147.518 173.264C154.352 166.773 158.612 157.598 158.612 147.429C158.612 127.75 142.66 111.798 122.982 111.798C116.11 111.798 109.692 113.744 104.25 117.114C122.978 131.898 137.95 151.16 147.518 173.264ZM122.982 89.5292C142.66 89.5292 158.612 73.5769 158.612 53.8987C158.612 34.2206 142.66 18.2683 122.982 18.2683C103.303 18.2683 87.3512 34.2206 87.3512 53.8987C87.3512 73.5769 103.303 89.5292 122.982 89.5292ZM122.982 80.6216C137.74 80.6216 149.704 68.6573 149.704 53.8987C149.704 39.1401 137.74 27.1759 122.982 27.1759C108.223 27.1759 96.2588 39.1401 96.2588 53.8987C96.2588 68.6573 108.223 80.6216 122.982 80.6216Z" fill="#979797"/> <path fill-rule="evenodd" clip-rule="evenodd" d="M7.81641 108.825C10.1327 108.695 12.4662 108.629 14.8151 108.629C82.643 108.629 137.628 163.614 137.628 231.442C137.628 237.274 137.222 243.01 136.436 248.625H146.723C147.441 242.999 147.812 237.264 147.812 231.443C147.812 157.289 87.6982 97.1758 13.5444 97.1758C11.6254 97.1758 9.71579 97.216 7.81641 97.2958V108.825Z" fill="#979797"/> <path fill-rule="evenodd" clip-rule="evenodd" d="M7.81641 128.995C7.81688 128.995 7.81736 128.995 7.81783 128.995C9.61923 128.995 11.4105 129.038 13.1905 129.124L13.4056 124.675L13.6207 120.226C11.6974 120.133 9.76273 120.086 7.81783 120.086C7.81736 120.086 7.81688 120.086 7.81641 120.086V128.995ZM121.588 244.033L117.139 243.818C117.225 242.038 117.268 240.246 117.268 238.445C117.268 236.644 117.225 234.852 117.139 233.072L121.588 232.857L126.037 232.642C126.13 234.565 126.177 236.5 126.177 238.445C126.177 240.39 126.13 242.325 126.037 244.248L121.588 244.033ZM116.097 222.379L120.504 221.731L124.911 221.083C124.343 217.22 123.588 213.417 122.656 209.683L118.334 210.762L114.012 211.841C114.874 215.292 115.572 218.808 116.097 222.379ZM110.898 201.561L115.092 200.06L119.285 198.559C117.974 194.893 116.486 191.312 114.834 187.824L110.809 189.731L106.783 191.638C108.311 194.862 109.685 198.173 110.898 201.561ZM101.711 182.169L105.53 179.875L109.348 177.582C107.35 174.254 105.192 171.034 102.887 167.93L99.3113 170.586L95.7356 173.243C97.868 176.113 99.8632 179.092 101.711 182.169ZM88.9162 164.943L92.2158 161.95L95.5154 158.958C92.9139 156.089 90.1735 153.349 87.3049 150.747L84.3126 154.047L81.3202 157.347C83.9741 159.753 86.5094 162.289 88.9162 164.943ZM73.0201 150.527L75.6763 146.951L78.3326 143.376C75.2291 141.07 72.0084 138.913 68.6809 136.914L66.3873 140.733L64.0937 144.551C67.1708 146.4 70.1495 148.395 73.0201 150.527ZM54.6245 139.48L56.5317 135.454L58.439 131.429C54.9512 129.776 51.3694 128.289 47.7037 126.977L46.2028 131.171L44.702 135.365C48.0898 136.578 51.4004 137.952 54.6245 139.48ZM34.4216 132.25L35.5008 127.929L36.58 123.607C32.8462 122.675 29.043 121.92 25.18 121.352L24.5318 125.759L23.8835 130.165C27.4553 130.691 30.9709 131.389 34.4216 132.25Z" fill="#979797"/> <rect x="7.81445" y="135.357" width="12.7268" height="96.7235" fill="#979797"/> <path d="M86.9844 209.172L89.8888 219.803L23.4472 237.955L20.5427 227.325L86.9844 209.172Z" fill="#979797"/> <circle cx="13.5428" cy="233.99" r="13.3631" fill="#979797"/> </g> <defs> <filter id="filter0_i_216_67" x="0.179688" y="0.453125" width="207.424" height="252.899" filterUnits="userSpaceOnUse" color-interpolation-filters="sRGB"> <feFlood flood-opacity="0" result="BackgroundImageFix"/> <feBlend mode="normal" in="SourceGraphic" in2="BackgroundImageFix" result="shape"/> <feColorMatrix in="SourceAlpha" type="matrix" values="0 0 0 0 0 0 0 0 0 0 0 0 0 0 0 0 0 0 127 0" result="hardAlpha"/> <feOffset dy="4.72709"/> <feGaussianBlur stdDeviation="2.36354"/> <feComposite in2="hardAlpha" operator="arithmetic" k2="-1" k3="1"/> <feColorMatrix type="matrix" values="0 0 0 0 0 0 0 0 0 0 0 0 0 0 0 0 0 0 0.25 0"/> 
<feBlend mode="normal" in2="shape" result="effect1_innerShadow_216_67"/> </filter> </defs> </svg>