<svg width="258" height="245" viewBox="0 0 258 245" fill="none" xmlns="http://www.w3.org/2000/svg">
<g filter="url(#filter0_i_219_24)">
<path fill-rule="evenodd" clip-rule="evenodd" d="M113.387 81.2885C107.606 71.633 93.1534 71.633 87.3724 81.2885L2.82564 222.5C-2.95533 232.156 4.27087 244.225 15.8328 244.225H184.926C196.488 244.225 203.715 232.156 197.934 222.5L113.387 81.2885ZM98.4668 190.921C103.902 190.921 108.348 186.748 108.496 181.509L109.996 128.325C110.168 122.213 105.077 117.167 98.7357 117.167H98.1594C91.8151 117.167 86.7223 122.217 86.8992 128.333L88.4376 181.516C88.5891 186.752 93.0346 190.921 98.4668 190.921ZM89.403 220.237C91.9276 222.637 94.95 223.837 98.4702 223.837C100.746 223.837 102.844 223.289 104.764 222.192C106.684 221.06 108.231 219.569 109.404 217.717C110.613 215.831 111.235 213.757 111.271 211.494C111.235 208.134 109.937 205.253 107.377 202.853C104.817 200.453 101.848 199.253 98.4702 199.253C94.95 199.253 91.9276 200.453 89.403 202.853C86.8785 205.253 85.634 208.134 85.6695 211.494C85.634 214.888 86.8785 217.803 89.403 220.237Z" fill="#979797"/>
<path fill-rule="evenodd" clip-rule="evenodd" d="M215.888 53.1231L249.559 2.61705C246.99 0.975132 243.937 0.0234375 240.662 0.0234375H116.592C107.455 0.0234375 100.049 7.42985 100.049 16.5661V66.7464C106.273 65.0504 113.469 67.272 117.145 73.4112L142.677 116.042C149.796 103.559 163.228 95.1439 178.627 95.1439C201.467 95.1439 219.983 113.66 219.983 136.501C219.983 158.986 202.039 177.28 179.689 177.844L189.605 194.4H240.662C249.798 194.4 257.204 186.994 257.204 177.857V16.5661C257.204 14.4537 256.808 12.4337 256.087 10.5764L231.145 47.9891L243.604 44.8742L255.959 41.7856L248.895 52.3817L219.945 95.8063L211.752 90.3442L233.638 57.5158L221.178 60.6306L208.824 63.7193L215.888 53.1231ZM174.598 169.343C175.919 169.504 177.263 169.586 178.627 169.586C196.899 169.586 211.712 154.773 211.712 136.501C211.712 118.228 196.899 103.415 178.627 103.415C164.571 103.415 152.562 112.181 147.768 124.543L174.598 169.343ZM178.627 82.7369C196.899 82.7369 211.712 67.9241 211.712 49.6515C211.712 31.379 196.899 16.5661 178.627 16.5661C160.354 16.5661 145.541 31.379 145.541 49.6515C145.541 67.9241 160.354 82.7369 178.627 82.7369ZM178.627 74.4656C192.331 74.4656 203.441 63.3559 203.441 49.6515C203.441 35.9471 192.331 24.8375 178.627 24.8375C164.922 24.8375 153.813 35.9471 153.813 49.6515C153.813 63.3559 164.922 74.4656 178.627 74.4656Z" fill="#979797"/>
</g>
<defs>
<filter id="filter0_i_219_24" x="0.791016" y="0.0234375" width="256.414" height="247.254" filterUnits="userSpaceOnUse" color-interpolation-filters="sRGB">
<feFlood flood-opacity="0" result="BackgroundImageFix"/>
<feBlend mode="normal" in="SourceGraphic" in2="BackgroundImageFix" result="shape"/>
<feColorMatrix in="SourceAlpha" type="matrix" values="0 0 0 0 0 0 0 0 0 0 0 0 0 0 0 0 0 0 127 0" result="hardAlpha"/>
<feOffset dy="3.05252"/>
<feGaussianBlur stdDeviation="1.52626"/>
<feComposite in2="hardAlpha" operator="arithmetic" k2="-1" k3="1"/>
<feColorMatrix type="matrix" values="0 0 0 0 0 0 0 0 0 0 0 0 0 0 0 0 0 0 0.23 0"/>
<feBlend mode="normal" in2="shape" result="effect1_innerShadow_219_24"/>
</filter>
</defs>
</svg>
