<svg width="262" height="267" viewBox="0 0 262 267" fill="none" xmlns="http://www.w3.org/2000/svg">
<g filter="url(#filter0_i_303_581)">
<path fill-rule="evenodd" clip-rule="evenodd" d="M47.0996 60.9688H27.326V88.2947L8.6433e-07 88.2947L0 108.068H27.326V145.144H8.6433e-07L0 164.917H27.326V192.243H47.0996V164.917L84.175 164.917V188.484C90.1709 184.033 96.8185 180.409 103.949 177.783V171.239C94.0596 163.238 87.7367 151.004 87.7367 137.292C87.7367 113.224 107.22 93.7065 131.275 93.6502V88.2947L103.949 88.2947V60.9688H84.175V88.2947L47.0996 88.2947V60.9688ZM84.175 145.144V108.068L47.0996 108.068V145.144L84.175 145.144Z" fill="#979797"/>
<path d="M107.718 108.068C114.155 102.851 122.349 99.7164 131.275 99.6922C131.309 99.6921 131.344 99.692 131.379 99.692C152.145 99.692 168.979 116.526 168.979 137.292C168.979 158.058 152.145 174.893 131.379 174.893C121.535 174.893 112.574 171.109 105.871 164.917C98.4351 158.048 93.7786 148.214 93.7786 137.292C93.7786 127.345 97.6413 118.3 103.949 111.575C105.123 110.323 106.383 109.151 107.718 108.068Z" fill="#979797"/>
<path d="M103.949 184.853C99.0983 186.829 94.51 189.314 90.2502 192.243C71.238 205.316 58.7715 227.221 58.7715 252.038C58.7715 252.502 58.7758 252.965 58.7845 253.427H127.984L127.897 253.161C126.284 248.239 128.037 242.83 132.241 239.801L139.835 234.33C140.654 233.74 141.531 233.266 142.443 232.91L172.268 192.206C160.61 184.205 146.495 179.523 131.286 179.523C121.615 179.523 112.385 181.417 103.949 184.853Z" fill="#979797"/>
<path d="M165.521 253.427H203.788C203.797 252.965 203.801 252.502 203.801 252.038C203.801 238.477 200.079 225.786 193.6 214.93L165.626 253.107C165.62 253.125 165.614 253.143 165.609 253.161L165.521 253.427Z" fill="#979797"/>
<path d="M149.27 253.427L150.216 250.338L146.714 247.858L143.433 250.279L144.527 253.427H149.27Z" fill="#979797"/>
<path fill-rule="evenodd" clip-rule="evenodd" d="M144.889 236.399L183.14 184.274L179.767 174.034C177.996 168.657 179.923 162.755 184.529 159.455L197.199 150.376C200.543 147.98 204.742 147.355 208.532 148.501L196.611 164.583L201.253 178.67L216.577 178.722L228.25 162.815C230.405 166.057 231.036 170.18 229.766 174.034L224.992 188.526C223.24 193.843 218.268 197.436 212.663 197.436H201.39L161.929 251.258L161.917 251.249L161.913 251.265L161.908 251.287C161.859 251.489 161.802 251.691 161.736 251.892L161.233 253.427H161.176L158.799 260.67C157.748 263.873 154.765 266.037 151.402 266.037H141.927C138.564 266.037 135.58 263.873 134.53 260.67L131.665 251.942C130.602 248.704 131.759 245.149 134.522 243.161L142.124 237.693C142.301 237.565 142.483 237.446 142.667 237.335C143.366 236.902 144.116 236.59 144.889 236.399ZM140.1 253.427L141.522 257.514C141.704 258.037 142.199 258.387 142.753 258.384L151.002 258.351C151.57 258.349 152.071 257.977 152.238 257.435L154.62 249.662C154.784 249.127 154.586 248.548 154.129 248.225L147.343 243.426C146.933 243.137 146.398 243.112 145.967 243.349C145.948 243.361 145.93 243.374 145.912 243.387L139.367 248.214C138.91 248.551 138.725 249.146 138.912 249.683L140.213 253.427H140.1Z" fill="#979797"/>
<path fill-rule="evenodd" clip-rule="evenodd" d="M116.677 0C114.122 0 112.051 2.0714 112.051 4.6266V81.8401H137.729V93.9239C145.674 95.5563 152.919 98.2907 158.852 102.586C166.013 95.2859 175.989 90.7575 187.023 90.7575C208.816 90.7575 226.483 108.425 226.483 130.218C226.483 145.82 217.429 159.306 204.288 165.711L205.838 171.782H213.391L228.221 154.481C238.31 162.241 237.535 171.449 232.481 185.464H257.374C259.929 185.464 262 183.393 262 180.837V4.6266C262 2.0714 259.929 0 257.374 0H116.677ZM175.868 185.464C175.482 184.143 175.082 182.86 174.692 181.607C173.026 176.256 171.536 171.473 172.088 166.754C169.882 165.851 167.775 164.754 165.79 163.485C158.885 172.273 150.5 176.039 150.5 176.039L174.514 185.464H175.868ZM170.095 156.812C171.62 157.77 173.234 158.603 174.921 159.295C177.291 155.761 181.306 152.118 187.713 148.164C200.186 140.465 210.447 142.518 215.353 144.359C217.528 140.088 218.754 135.259 218.754 130.145C218.754 112.734 204.549 98.619 187.026 98.619C178.3 98.619 170.396 102.119 164.66 107.784C170.408 114.164 174.069 122.895 174.668 134.707C175.122 143.665 173.119 150.972 170.095 156.812ZM187.025 78.9217C204.459 78.9217 218.593 64.7881 218.593 47.3534C218.593 29.9186 204.459 15.785 187.025 15.785C169.59 15.785 155.456 29.9186 155.456 47.3534C155.456 64.7881 169.59 78.9217 187.025 78.9217ZM210.67 47.4908C210.67 60.5492 200.084 71.1351 187.026 71.1351C173.967 71.1351 163.381 60.5492 163.381 47.4908C163.381 34.4324 173.967 23.8464 187.026 23.8464C200.084 23.8464 210.67 34.4324 210.67 47.4908Z" fill="#979797"/>
</g>
<defs>
<filter id="filter0_i_303_581" x="0" y="0" width="262" height="270.037" filterUnits="userSpaceOnUse" color-interpolation-filters="sRGB">
<feFlood flood-opacity="0" result="BackgroundImageFix"/>
<feBlend mode="normal" in="SourceGraphic" in2="BackgroundImageFix" result="shape"/>
<feColorMatrix in="SourceAlpha" type="matrix" values="0 0 0 0 0 0 0 0 0 0 0 0 0 0 0 0 0 0 127 0" result="hardAlpha"/>
<feOffset dy="4"/>
<feGaussianBlur stdDeviation="2"/>
<feComposite in2="hardAlpha" operator="arithmetic" k2="-1" k3="1"/>
<feColorMatrix type="matrix" values="0 0 0 0 0 0 0 0 0 0 0 0 0 0 0 0 0 0 0.25 0"/>
<feBlend mode="normal" in2="shape" result="effect1_innerShadow_303_581"/>
</filter>
</defs>
</svg>
