<svg width="299" height="267" viewBox="0 0 299 267" fill="none" xmlns="http://www.w3.org/2000/svg">
<g filter="url(#filter0_i_268_742)">
<path fill-rule="evenodd" clip-rule="evenodd" d="M35.4509 0H61.1039V35.4509H109.203V0H134.856V35.4509H170.307V42.4004C139.1 42.4736 113.824 67.7945 113.824 99.0189C113.824 116.807 122.027 132.679 134.856 143.058V151.547C125.606 154.953 116.982 159.654 109.203 165.429V134.856L61.1039 134.856V170.307H35.4509V134.856H0V109.203H35.4509V61.1039H0V35.4509H35.4509V0ZM170.307 50.2389C158.729 50.2704 148.099 54.3358 139.749 61.1039H170.307V50.2389ZM134.856 65.6554V109.203H170.307V134.856H137.348C127.703 125.944 121.662 113.187 121.662 99.0189C121.662 86.1141 126.674 74.3796 134.856 65.6554ZM117.083 170.307C122.61 166.507 128.563 163.282 134.856 160.719V170.307H117.083ZM109.203 61.1039V109.203H61.1039V61.1039L109.203 61.1039Z" fill="#929292"/>
<path d="M219.228 99.0185C219.228 125.959 197.389 147.799 170.448 147.799C143.508 147.799 121.668 125.959 121.668 99.0185C121.668 72.0779 143.508 50.2383 170.448 50.2383C197.389 50.2383 219.228 72.0779 219.228 99.0185Z" fill="#979797"/>
<path fill-rule="evenodd" clip-rule="evenodd" d="M223.493 170.258C208.368 159.879 190.056 153.805 170.326 153.805C118.369 153.805 76.25 195.924 76.25 247.881C76.25 248.483 76.2557 249.084 76.2669 249.683H166.042L165.929 249.337C163.837 242.952 166.11 235.935 171.565 232.005L181.417 224.908C182.479 224.142 183.617 223.528 184.8 223.065L223.493 170.258ZM214.74 249.683H264.385C264.397 249.084 264.402 248.483 264.402 247.881C264.402 230.288 259.573 213.823 251.168 199.739L214.876 249.267C214.869 249.291 214.861 249.314 214.853 249.337L214.74 249.683ZM227.767 173.371L188.05 227.573C186.801 227.871 185.596 228.413 184.507 229.197L174.655 236.294C171.074 238.874 169.575 243.488 170.953 247.691L171.605 249.683H181.907L180.219 244.825C179.977 244.129 180.216 243.356 180.809 242.919L189.3 236.657C189.884 236.227 190.679 236.219 191.271 236.639L200.065 242.866C200.657 243.286 200.913 244.037 200.701 244.731L199.186 249.683H209.177L209.83 247.691C209.915 247.43 209.989 247.169 210.053 246.906C210.057 246.89 210.06 246.873 210.064 246.857L210.08 246.869L248.116 194.959C242.51 186.733 235.632 179.443 227.767 173.371ZM193.657 249.683L194.884 245.675L190.341 242.458L186.084 245.598L187.503 249.683H193.657Z" fill="#929292"/>
<path fill-rule="evenodd" clip-rule="evenodd" d="M270.538 113.556C265.621 112.069 260.172 112.879 255.835 115.988L239.397 127.766C233.422 132.048 230.921 139.705 233.219 146.68L237.596 159.965L187.931 227.644C186.68 227.942 185.474 228.483 184.384 229.267L174.522 236.362C170.937 238.94 169.437 243.552 170.815 247.753L174.531 259.077C175.895 263.231 179.765 266.039 184.128 266.039H196.42C200.784 266.039 204.654 263.231 206.017 259.077L209.733 247.753C209.824 247.477 209.902 247.199 209.968 246.92L209.984 246.931L261.271 177.041H275.896C283.168 177.041 289.619 172.379 291.891 165.481L298.085 146.68C299.732 141.681 298.914 136.331 296.118 132.125L280.974 152.763L280.641 152.519L280.583 152.694H261.094L255.072 134.419L255.491 134.118L255.464 134.098L270.538 113.556ZM185.2 256.111C184.481 256.114 183.839 255.66 183.603 254.982L180.091 244.888C179.849 244.193 180.088 243.42 180.682 242.983L189.182 236.725C189.767 236.294 190.562 236.286 191.155 236.706L199.958 242.931C200.551 243.35 200.808 244.101 200.595 244.795L197.505 254.879C197.289 255.583 196.639 256.065 195.901 256.068L185.2 256.111Z" fill="#979797"/>
</g>
<defs>
<filter id="filter0_i_268_742" x="0" y="0" width="298.93" height="270.039" filterUnits="userSpaceOnUse" color-interpolation-filters="sRGB">
<feFlood flood-opacity="0" result="BackgroundImageFix"/>
<feBlend mode="normal" in="SourceGraphic" in2="BackgroundImageFix" result="shape"/>
<feColorMatrix in="SourceAlpha" type="matrix" values="0 0 0 0 0 0 0 0 0 0 0 0 0 0 0 0 0 0 127 0" result="hardAlpha"/>
<feOffset dy="4"/>
<feGaussianBlur stdDeviation="2"/>
<feComposite in2="hardAlpha" operator="arithmetic" k2="-1" k3="1"/>
<feColorMatrix type="matrix" values="0 0 0 0 0 0 0 0 0 0 0 0 0 0 0 0 0 0 0.25 0"/>
<feBlend mode="normal" in2="shape" result="effect1_innerShadow_268_742"/>
</filter>
</defs>
</svg>
